<?xml version="1.0" standalone="no"?>
<!DOCTYPE svg PUBLIC "-//W3C//DTD SVG 1.1//EN" "http://www.w3.org/Graphics/SVG/1.1/DTD/svg11.dtd">
<svg width="185" height="228" viewBox="0 -9 185 228" xmlns="http://www.w3.org/2000/svg" version="1.1">
<title>OpenSCAD Model</title>
<path d="
M 7.22962e-07,123 L 5,123 L 5,127.75 L 15,127.75 L 15,123 L 65.5,123
 L 65.5,127.75 L 75.5,127.75 L 75.5,123 L 80.5,123 L 80.5,59.5 L 75.5,59.5
 L 75.5,54.75 L 65.5,54.75 L 65.5,59.5 L 15,59.5 L 15,54.75 L 5,54.75
 L 5,59.5 L 7.22962e-07,59.5 z
M 13.2899,100.811 L 13.2899,99.4888 L 14.5476,99.0801 L 15.325,100.15 L 14.5476,101.22 z
M 13.2899,72.9113 L 13.2899,71.5888 L 14.5476,71.1801 L 15.325,72.25 L 14.5476,73.3199 z
M 64.0898,116.011 L 64.0898,114.689 L 65.3476,114.28 L 66.125,115.35 L 65.3476,116.42 z
M 65.3898,67.8113 L 65.3898,66.4888 L 66.6476,66.0801 L 67.425,67.15 L 66.6476,68.22 z
M 0.868241,199 L 6.69305,199 L 6.69305,203.75 L 16.6931,203.75 L 16.6931,199 L 75.3979,199
 L 75.3979,203.75 L 85.3979,203.75 L 85.3979,199 L 90.3979,199 L 90.3979,135.5 L 85.3979,135.5
 L 85.3979,130.75 L 75.3979,130.75 L 75.3979,135.5 L 16.6931,135.5 L 16.6931,130.75 L 6.69305,130.75
 L 6.69305,135.5 L 0.868241,135.5 z
M 11.9581,180.411 L 11.9581,179.089 L 13.2159,178.68 L 13.9932,179.75 L 13.2159,180.82 z
M 11.9581,155.411 L 11.9581,154.089 L 13.2159,153.68 L 13.9932,154.75 L 13.2159,155.82 z
M 25.3979,190.75 L 25.3979,185.75 L 27.8979,185.75 L 27.8979,190.75 z
M 25.3979,148.75 L 25.3979,143.75 L 27.8979,143.75 L 27.8979,148.75 z
M 70.3979,190.75 L 70.3979,185.75 L 72.8979,185.75 L 72.8979,190.75 z
M 70.3979,148.75 L 70.3979,143.75 L 72.8979,143.75 L 72.8979,148.75 z
M 30.3979,21.75 L 31.0535,27.9874 L 32.9916,33.9521 L 36.1274,39.3836 L 40.324,44.0443 L 45.3979,47.7308
 L 51.1274,50.2817 L 57.2621,51.5857 L 63.5338,51.5857 L 69.6685,50.2817 L 75.3979,47.7308 L 80.4719,44.0443
 L 84.6685,39.3836 L 87.8043,33.9521 L 89.7424,27.9874 L 90.3979,21.75 L 89.7424,15.5126 L 87.8043,9.5479
 L 84.6685,4.11644 L 80.4719,-0.544344 L 75.3979,-4.23076 L 69.6685,-6.7817 L 63.5338,-8.08566 L 57.2621,-8.08566
 L 51.1274,-6.7817 L 45.3979,-4.23076 L 40.324,-0.544344 L 36.1274,4.11644 L 32.9916,9.5479 L 31.0535,15.5126
 z
M 57.2947,21.6048 L 57.301,21.5051 L 57.5397,21.2946 L 57.587,21.1491 L 57.4283,20.8377 L 57.4592,20.7426
 L 57.7706,20.5839 L 57.8179,20.4383 L 57.7485,20.1278 L 57.802,20.0434 L 57.9575,20.0086 L 57.9658,19.983
 L 58.2265,19.7936 L 58.2351,19.5199 L 58.308,19.4514 L 58.6813,19.4632 L 58.7535,19.4107 L 58.8577,19.0521
 L 58.9453,19.0039 L 59.2083,19.0803 L 59.469,18.8909 L 59.496,18.8909 L 59.577,18.7538 L 59.6739,18.7289
 L 59.9478,18.8909 L 60.1008,18.8909 L 60.348,18.6438 L 60.4479,18.6438 L 60.6951,18.8909 L 60.8481,18.8909
 L 61.122,18.7289 L 61.2189,18.7538 L 61.2999,18.8909 L 61.3269,18.8909 L 61.5876,19.0803 L 61.8506,19.0039
 L 61.9382,19.0521 L 62.0424,19.4107 L 62.1146,19.4632 L 62.4879,19.4514 L 62.5608,19.5199 L 62.5694,19.7936
 L 62.8301,19.983 L 62.8384,20.0086 L 62.9938,20.0434 L 63.0474,20.1278 L 62.978,20.4383 L 63.0253,20.5839
 L 63.3367,20.7426 L 63.3676,20.8377 L 63.2089,21.1491 L 63.2562,21.2946 L 63.4949,21.5051 L 63.5012,21.6048
 L 63.3959,21.7243 L 63.4042,21.75 L 63.3046,22.0565 L 63.4585,22.2829 L 63.4398,22.3812 L 63.1309,22.5911
 L 63.1033,22.6759 L 63.2298,23.0273 L 63.1873,23.1178 L 62.9296,23.2106 L 62.8301,23.517 L 62.8082,23.5329
 L 62.8232,23.6915 L 62.7595,23.7685 L 62.4427,23.7985 L 62.3189,23.8884 L 62.2642,24.2336 L 62.1833,24.2924
 L 61.8381,24.2377 L 61.7143,24.3277 L 61.5879,24.6197 L 61.495,24.6565 L 61.3488,24.5933 L 61.3269,24.6091
 L 61.0047,24.6091 L 60.8369,24.8255 L 60.7377,24.838 L 60.4426,24.6091 L 60.3533,24.6091 L 60.0582,24.838
 L 59.959,24.8255 L 59.7912,24.6091 L 59.469,24.6091 L 59.4471,24.5933 L 59.3009,24.6565 L 59.208,24.6197
 L 59.0816,24.3277 L 58.9578,24.2377 L 58.6126,24.2924 L 58.5317,24.2336 L 58.477,23.8884 L 58.3532,23.7985
 L 58.0364,23.7685 L 57.9727,23.6915 L 57.9877,23.5329 L 57.9658,23.517 L 57.8663,23.2106 L 57.6086,23.1178
 L 57.5661,23.0273 L 57.6926,22.6759 L 57.665,22.5911 L 57.3561,22.3812 L 57.3374,22.2829 L 57.4913,22.0565
 L 57.3917,21.75 L 57.4,21.7243 z
M 59.4878,37.4113 L 59.4878,28.0887 L 60.7456,27.6801 L 61.5229,28.75 L 61.5229,36.75 L 60.7456,37.8199
 z
M 59.4878,15.4113 L 59.4878,6.08874 L 60.7456,5.68006 L 61.5229,6.75 L 61.5229,14.75 L 60.7456,15.8199
 z
M 83.5,96 L 183.5,96 L 183.5,51 L 83.5,51 z
M 96.625,78.875 L 96.625,68.125 L 102.125,68.125 L 102.125,78.875 z
M 164.875,78.875 L 164.875,68.125 L 170.375,68.125 L 170.375,78.875 z
M 92.8993,131.617 L 97.4915,132.426 L 93.398,156 L 183.796,156 L 183.796,99 L 103.296,99
 L 99.2024,122.574 L 94.6358,121.769 z
M 99.716,151.375 L 99.716,145.875 L 110.466,145.875 L 110.466,151.375 z
M 107.921,109.125 L 107.921,103.625 L 118.671,103.625 L 118.671,109.125 z
M 115.886,141.161 L 115.886,139.839 L 117.144,139.43 L 117.921,140.5 L 117.144,141.57 z
M 115.886,131.161 L 115.886,129.839 L 117.144,129.43 L 117.921,130.5 L 117.144,131.57 z
M 121.296,146.25 L 121.296,124.75 L 163.796,124.75 L 163.796,132.5 L 165.796,132.5 L 167.223,132.647
 L 168.723,133.737 L 169.296,135.5 L 168.723,137.263 L 167.223,138.353 L 165.796,138.5 L 163.796,138.5
 L 163.796,146.25 z
M 167.386,141.161 L 167.386,139.839 L 168.644,139.43 L 169.421,140.5 L 168.644,141.57 z
M 167.386,131.161 L 167.386,129.839 L 168.644,129.43 L 169.421,130.5 L 168.644,131.57 z
M 168.421,151.375 L 168.421,145.875 L 179.171,145.875 L 179.171,151.375 z
M 168.421,109.125 L 168.421,103.625 L 179.171,103.625 L 179.171,109.125 z
M 93.3979,189 L 94.0535,195.237 L 95.9916,201.202 L 99.1274,206.634 L 103.324,211.294 L 108.398,214.981
 L 114.127,217.532 L 120.262,218.836 L 126.534,218.836 L 132.668,217.532 L 138.398,214.981 L 143.472,211.294
 L 147.668,206.634 L 150.804,201.202 L 152.742,195.237 L 153.398,189 L 152.742,182.763 L 150.804,176.798
 L 147.668,171.366 L 143.472,166.706 L 138.398,163.019 L 132.668,160.468 L 126.534,159.164 L 120.262,159.164
 L 114.127,160.468 L 108.398,163.019 L 103.324,166.706 L 99.1274,171.366 L 95.9916,176.798 L 94.0535,182.763
 z
M 120.295,188.855 L 120.301,188.755 L 120.54,188.545 L 120.587,188.399 L 120.428,188.088 L 120.459,187.993
 L 120.771,187.834 L 120.818,187.688 L 120.748,187.378 L 120.802,187.293 L 120.957,187.259 L 120.966,187.233
 L 121.227,187.044 L 121.235,186.77 L 121.308,186.701 L 121.681,186.713 L 121.753,186.661 L 121.858,186.302
 L 121.945,186.254 L 122.208,186.33 L 122.469,186.141 L 122.496,186.141 L 122.577,186.004 L 122.674,185.979
 L 122.948,186.141 L 123.101,186.141 L 123.348,185.894 L 123.448,185.894 L 123.695,186.141 L 123.848,186.141
 L 124.122,185.979 L 124.219,186.004 L 124.3,186.141 L 124.327,186.141 L 124.588,186.33 L 124.851,186.254
 L 124.938,186.302 L 125.042,186.661 L 125.115,186.713 L 125.488,186.701 L 125.561,186.77 L 125.569,187.044
 L 125.83,187.233 L 125.838,187.259 L 125.994,187.293 L 126.047,187.378 L 125.978,187.688 L 126.025,187.834
 L 126.337,187.993 L 126.368,188.088 L 126.209,188.399 L 126.256,188.545 L 126.495,188.755 L 126.501,188.855
 L 126.396,188.974 L 126.404,189 L 126.305,189.306 L 126.459,189.533 L 126.44,189.631 L 126.131,189.841
 L 126.103,189.926 L 126.23,190.277 L 126.187,190.368 L 125.93,190.461 L 125.83,190.767 L 125.808,190.783
 L 125.823,190.941 L 125.759,191.019 L 125.443,191.048 L 125.319,191.138 L 125.264,191.484 L 125.183,191.542
 L 124.838,191.488 L 124.714,191.578 L 124.588,191.87 L 124.495,191.907 L 124.349,191.843 L 124.327,191.859
 L 124.005,191.859 L 123.837,192.075 L 123.738,192.088 L 123.443,191.859 L 123.353,191.859 L 123.058,192.088
 L 122.959,192.075 L 122.791,191.859 L 122.469,191.859 L 122.447,191.843 L 122.301,191.907 L 122.208,191.87
 L 122.082,191.578 L 121.958,191.488 L 121.613,191.542 L 121.532,191.484 L 121.477,191.138 L 121.353,191.048
 L 121.036,191.019 L 120.973,190.941 L 120.988,190.783 L 120.966,190.767 L 120.866,190.461 L 120.609,190.368
 L 120.566,190.277 L 120.693,189.926 L 120.665,189.841 L 120.356,189.631 L 120.337,189.533 L 120.491,189.306
 L 120.392,189 L 120.4,188.974 z
M 122.488,204.661 L 122.488,195.339 L 123.746,194.93 L 124.523,196 L 124.523,204 L 123.746,205.07
 z
M 122.488,182.661 L 122.488,173.339 L 123.746,172.93 L 124.523,174 L 124.523,182 L 123.746,183.07
 z
M 93.3979,48 L 183.796,48 L 179.702,24.4263 L 184.295,23.6166 L 182.558,13.7685 L 177.991,14.5737
 L 173.898,-9 L 93.3979,-9 z
M 98.0229,43.375 L 98.0229,37.875 L 108.773,37.875 L 108.773,43.375 z
M 98.0229,1.125 L 98.0229,-4.375 L 108.773,-4.375 L 108.773,1.125 z
M 107.773,32.5 L 108.55,31.4301 L 109.808,31.8387 L 109.808,33.1613 L 108.55,33.5699 z
M 107.773,22.5 L 108.55,21.4301 L 109.808,21.8387 L 109.808,23.1613 L 108.55,23.5699 z
M 107.898,27.5 L 108.471,25.7366 L 109.971,24.6468 L 111.398,24.5 L 113.398,24.5 L 113.398,16.75
 L 155.898,16.75 L 155.898,38.25 L 113.398,38.25 L 113.398,30.5 L 111.398,30.5 L 109.971,30.3532
 L 108.471,29.2634 z
M 158.523,1.125 L 158.523,-4.375 L 169.273,-4.375 L 169.273,1.125 z
M 159.273,32.5 L 160.05,31.4301 L 161.308,31.8387 L 161.308,33.1613 L 160.05,33.5699 z
M 159.273,22.5 L 160.05,21.4301 L 161.308,21.8387 L 161.308,23.1613 L 160.05,23.5699 z
M 166.728,43.375 L 166.728,37.875 L 177.478,37.875 L 177.478,43.375 z
" stroke="black" fill="lightgray" stroke-width="0.5"/></svg>
